<?xml version="1.0" encoding="UTF-8"?>
<svg id="Layer_2" data-name="Layer 2" xmlns="http://www.w3.org/2000/svg" viewBox="0 0 460.66 130.55">
  <defs>
    <style>
      .cls-1 {
        fill: #395566;
      }

      .cls-2 {
        fill: #7a8f97;
      }

      .cls-3 {
        fill: #d0a04f;
      }
    </style>
  </defs>
  <g id="Layer_1-2" data-name="Layer 1">
    <path class="cls-1" d="M123.41,2.39c.37-.07.89-.68,1.5-.5l-4.5,36.21c-.13.53-.98.28-1.01.33l-8.27-8c-10.75,10.45-20.15,22.27-30.55,33.04-2.14,2.22-4.96,5.39-7.26,7.26-4.57,3.71-10.98,6.36-15.9,9.69-5.15-1.88-9.48-5.83-14.58-8.03-.25-3.3.04-6.63-.08-9.93l15.85,9.97.68-.18c20.4-21.2,40.18-42.98,60.09-64.64,1.44-1.57,4.1-2.43,4.03-5.23Z"/>
    <path class="cls-2" d="M123.41,2.39c.07,2.8-2.59,3.67-4.03,5.23-19.91,21.66-39.69,43.44-60.09,64.64l-.68.18-15.85-9.97c0-.07-.5-.57-.52-1.21-.09-2.93.11-5.88.02-8.8.72-.12,1.3.04,1.97.28,3.66,1.31,8.66,5.93,12.54,7.53l1.5-.03c13.13-13.92,26.15-28.02,38.87-42.27.29-1.29-6.06-6.23-7.29-7.56.09-.14-.27-.88.33-1.02,11.06-2.46,22.1-4.89,33.23-6.99Z"/>
    <path class="cls-2" d="M92.85,95.51c-.01,2.62-.39,5.74-.5,8.51-.09,2.22.16,4.46-.08,6.68-.2.59-3.12,2.32-3.92,2.84-3.51,2.23-7.42,4.35-11.02,6.51-.24.14-1.21-.14-1.5,0l-.5-45.06,17.03-18.02c.01,12.1,0,24.22-.02,36.33,0,.95.52,1.9.52,2.22Z"/>
    <path class="cls-1" d="M75.82,120.04c-.95.47-5.7,4.41-7.51,5.51-1.12.67-2.36,1.34-3.51,2-1.79,1.04-3.77,1.84-5.51,3v-45.81c4.98-3.75,10.64-6.64,16.03-9.76l.5,45.06Z"/>
    <path class="cls-2" d="M77.33,14.4c-.31.21-1.36.32-2.02.72-4.66,2.84-10.71,6.78-15.51,9.05-.96.45-2.04,1.33-3.15,1.16-7.41-3.78-14.22-8.73-21.91-11.94-.21-.22-.07-.69.31-1.04,1.05-.94,4.24-2.58,5.7-3.46.82-.5,1.68-1.01,2.5-1.5s1.68-1.03,2.5-1.5c.87-.49,1.84-1.13,2.5-1.5,1.77-.98,3.72-2.11,5.51-3,1.37-.68,3-1.94,4.36-1.12l20.68,12.39c-.6.29-1.17,1.53-1.49,1.75Z"/>
    <path class="cls-1" d="M231.61,58.71c.39-1.26,5.16-.72,6.41-.65l12.62,19.42v-19.52h6.51v30.54l-6.41-.11-12.63-18.91v19.02h-6.51v-29.79Z"/>
    <path class="cls-1" d="M407.44,77.98v-20.03h6.01v30.54c-1.8-.25-4.88.57-6.3-.47l-12.74-19.06v19.52h-6.01v-30.54c1.77.26,4.93-.6,6.26.5l12.78,19.52Z"/>
    <path class="cls-1" d="M217.84,57.96c11.04,1.18,13.62,13.65,3.72,18.32-.26,1.78,6.18,9.67,6.05,12.22h-7.01c-.75-1.46-5.05-11.1-5.59-11.43-.59-.36-2.12.05-2.93-.08v11.51h-6.51v-29.79c0-.05.7-.75.75-.75,3.58,0,8.1-.36,11.52,0ZM212.08,71.98c3.9-.06,9.06,1.11,9.06-4.26s-5.16-4.19-9.06-4.26v8.51Z"/>
    <path class="cls-1" d="M183.89,58.08c23.84-4.03,23.82,32.25,2.39,30.91-18.06-1.13-17.6-28.34-2.39-30.91ZM185.39,63.59c-9.36,1.57-9.41,20.48,2.66,19.67,11.16-.75,10.63-21.9-2.66-19.67Z"/>
    <path class="cls-1" d="M297.48,57.96c9.64,1.5,11.5,14.68,2.22,18.32-.36,2.14,6.13,9.43,6.05,12.22h-7.01c-.81-1.94-5.04-11.01-6.36-11.42-.69-.21-1.45-.09-2.16-.1v11.26c0,1.36-5.29-.25-6.51.25v-30.54c4.23.46,9.72-.63,13.78,0ZM289.72,71.98h7.26c3.39,0,3.1-8.51,0-8.51h-7.26v8.51Z"/>
    <path class="cls-1" d="M366.73,58.08c21.97-3.47,24.02,28.99,4.83,30.86-19.77,1.93-21.66-28.21-4.83-30.86ZM364.03,65.64c-4.49,4.49-3.5,16.2,3.62,17.32,8.16,1.28,11.74-4.74,10.69-12.19-.93-6.66-9.43-10.01-14.31-5.13Z"/>
    <path class="cls-1" d="M170,67.97h-7.01c-.07,0-.07-.81-.49-1.24-1.8-1.85-3.4-3.33-6.25-3.28-11.77.23-10.58,21.66,1.86,19.42,3.45-.62,4.52-3.93,5.73-4.3,1.68-.52,3.85.81,5.66.42-.13,3.98-4.51,8.03-8.12,9.16-14.45,4.54-24.73-11.48-17.14-23.64,6.44-10.32,22.8-8.55,25.76,3.46Z"/>
    <path class="cls-1" d="M330.29,66.47h-7.01c-.12,0,.1-1.32-.96-2.29-2.72-2.49-8.23-.51-6.29,3.79,1.49,3.29,12.49,2.22,14.04,9.49,2.97,13.89-19.65,15.84-21.26,2.82.25-1.05,5.13-1.05,6.12-.81.79.19.43,4.04,5.09,4.07,2.86.02,4.73-2.35,3.5-5.05-1.52-3.33-13.1-2.64-14.23-9.8-2.12-13.33,19.47-14.98,21.01-2.22Z"/>
    <path class="cls-1" d="M428.98,57.96c5.54.08,7.86-1.65,7.01,5.51h-11.52v7.01h10.02c-.07,1,.4,5.51-.75,5.51h-9.27v7.51h11.52v5.01c-3-.02-6.02.01-9.02,0-2.83-.02-5.68.01-8.52,0v-30.54c3.5.03,7.02-.05,10.52,0Z"/>
    <path class="cls-1" d="M279.7,58.46v5.01h-11.52v7.01h10.02v5.51h-10.02v7.51c2.69.19,5.07-.6,7.79-.52,5.02.15,3.65,1.01,3.73,5.53h-17.53v-30.04h17.53Z"/>
    <polygon class="cls-1" points="354.34 58.46 354.34 63.47 346.32 63.47 346.32 88.5 339.81 88.5 339.81 63.47 332.3 63.47 332.3 58.46 354.34 58.46"/>
    <path class="cls-1" d="M460.03,66.47c-1.77-.29-4.6.4-6.18.02-.54-.13-.8-3.57-4.6-3.54-3.32.03-4.93,4.08-2.39,6.05,2.89,2.24,9.88,1.89,12.38,6.02,6.13,10.11-9.1,19.05-17.49,10.97-.92-.88-3.76-5.3-2.28-6.28.52-.34,5.61-.4,5.97-.16.73.48-.15,3.85,4.32,3.98,4.13.13,5.86-3.7,2.89-6.06-3.44-2.73-12.4-2.48-13.16-8.74-1.71-14.11,19.35-14.62,20.55-2.27Z"/>
    <path class="cls-2" d="M28.74,15.91c.73-.3,1.7-.63,2.47-.25l23.58,14.02v24.28l-16.53-9.51v29.79l16.53,10.51v19.77c-11.54-5.58-21.96-13.41-33.48-19.1l-.06-42.64c-6.44-3.43-12.41-7.85-19.06-10.85.06-.03-.04-1.03.61-1.17,8.55-3.74,17.56-11.42,25.94-14.85Z"/>
    <path class="cls-1" d="M.18,38.94c.02-.82-.5-3.35.74-2.99,2.46,2,15.53,8.09,16.19,10.35l.18,41.62,36.98,21.86c.93,1.12.46,3.68.51,5.25.09,2.99-.08,6.02,0,9.01.04,1.47.41,2.45.5,3.5.08.88-.03,1.74-.5,2.5-4.76-2.17-9.48-4.87-14.03-7.51-13.6-7.91-26.88-16.46-40.5-24.36.27-19.72-.63-39.54-.08-59.24Z"/>
    <path class="cls-3" d="M96.86,51.7l13.88-14.72c5.11,1.09,3.16,7.57,3.14,11.19-.1,16.66.11,33.33.03,49.98l-17.04,9.86v-56.32Z"/>
    <path class="cls-2" d="M59.29,29.67l23.54-14.06c1.97-.49,5.25,2.13,7.05,3.09l-30.59,33.75v-22.78Z"/>
  </g>
</svg>