<?xml version="1.0" encoding="UTF-8"?>
<svg id="Layer_2" data-name="Layer 2" xmlns="http://www.w3.org/2000/svg" viewBox="0 0 124.91 130.55">
  <defs>
    <style>
      .cls-1 {
        fill: #395566;
      }

      .cls-2 {
        fill: #7a8f97;
      }

      .cls-3 {
        fill: #d0a04f;
      }
    </style>
  </defs>
  <g id="Layer_1-2" data-name="Layer 1">
    <path class="cls-1" d="M123.41,2.39c.37-.07.89-.68,1.5-.5l-4.5,36.21c-.13.53-.98.28-1.01.33l-8.27-8c-10.75,10.45-20.15,22.27-30.55,33.04-2.14,2.22-4.96,5.39-7.26,7.26-4.57,3.71-10.98,6.36-15.9,9.69-5.15-1.88-9.48-5.83-14.58-8.03-.25-3.3.04-6.63-.08-9.93l15.85,9.97.68-.18c20.4-21.2,40.18-42.98,60.09-64.64,1.44-1.57,4.1-2.43,4.03-5.23Z"/>
    <path class="cls-2" d="M123.41,2.39c.07,2.8-2.59,3.67-4.03,5.23-19.91,21.66-39.69,43.44-60.09,64.64l-.68.18-15.85-9.97c0-.07-.5-.57-.52-1.21-.09-2.93.11-5.88.02-8.8.72-.12,1.3.04,1.97.28,3.66,1.31,8.66,5.93,12.54,7.53l1.5-.03c13.13-13.92,26.15-28.02,38.87-42.27.29-1.29-6.06-6.23-7.29-7.56.09-.14-.27-.88.33-1.02,11.06-2.46,22.1-4.89,33.23-6.99Z"/>
    <path class="cls-2" d="M92.85,95.51c-.01,2.62-.39,5.74-.5,8.51-.09,2.22.16,4.46-.08,6.68-.2.59-3.12,2.32-3.92,2.84-3.51,2.23-7.42,4.35-11.02,6.51-.24.14-1.21-.14-1.5,0l-.5-45.06,17.03-18.02c.01,12.1,0,24.22-.02,36.33,0,.95.52,1.9.52,2.22Z"/>
    <path class="cls-1" d="M75.82,120.04c-.95.47-5.7,4.41-7.51,5.51-1.12.67-2.36,1.34-3.51,2-1.79,1.04-3.77,1.84-5.51,3v-45.81c4.98-3.75,10.64-6.64,16.03-9.76l.5,45.06Z"/>
    <path class="cls-2" d="M77.33,14.4c-.31.21-1.36.32-2.02.72-4.66,2.84-10.71,6.78-15.51,9.05-.96.45-2.04,1.33-3.15,1.16-7.41-3.78-14.22-8.73-21.91-11.94-.21-.22-.07-.69.31-1.04,1.05-.94,4.24-2.58,5.7-3.46.82-.5,1.68-1.01,2.5-1.5s1.68-1.03,2.5-1.5c.87-.49,1.84-1.13,2.5-1.5,1.77-.98,3.72-2.11,5.51-3,1.37-.68,3-1.94,4.36-1.12l20.68,12.39c-.6.29-1.17,1.53-1.49,1.75Z"/>
    <path class="cls-2" d="M28.74,15.91c.73-.3,1.7-.63,2.47-.25l23.58,14.02v24.28l-16.53-9.51v29.79l16.53,10.51v19.77c-11.54-5.58-21.96-13.41-33.48-19.1l-.06-42.64c-6.44-3.43-12.41-7.85-19.06-10.85.06-.03-.04-1.03.61-1.17,8.55-3.74,17.56-11.42,25.94-14.85Z"/>
    <path class="cls-1" d="M.18,38.94c.02-.82-.5-3.35.74-2.99,2.46,2,15.53,8.09,16.19,10.35l.18,41.62,36.98,21.86c.93,1.12.46,3.68.51,5.25.09,2.99-.08,6.02,0,9.01.04,1.47.41,2.45.5,3.5.08.88-.03,1.74-.5,2.5-4.76-2.17-9.48-4.87-14.03-7.51-13.6-7.91-26.88-16.46-40.5-24.36.27-19.72-.63-39.54-.08-59.24Z"/>
    <path class="cls-3" d="M96.86,51.7l13.88-14.72c5.11,1.09,3.16,7.57,3.14,11.19-.1,16.66.11,33.33.03,49.98l-17.04,9.86v-56.32Z"/>
    <path class="cls-2" d="M59.29,29.67l23.54-14.06c1.97-.49,5.25,2.13,7.05,3.09l-30.59,33.75v-22.78Z"/>
  </g>
</svg>